<svg width="29" height="28" viewBox="0 0 29 28" fill="none" xmlns="http://www.w3.org/2000/svg">
<g clip-path="url(#clip0_1_430)">
<path d="M19.7727 11.875L24.7488 8.45312C24.8203 8.40386 24.9043 8.37484 24.9915 8.36922C25.0787 8.3636 25.1657 8.38159 25.2432 8.42124C25.3207 8.4609 25.3857 8.52068 25.4309 8.59408C25.4762 8.66748 25.5001 8.75168 25.5 8.8375V20.1625C25.5001 20.2483 25.4762 20.3325 25.4309 20.4059C25.3857 20.4793 25.3207 20.5391 25.2432 20.5788C25.1657 20.6184 25.0787 20.6364 24.9915 20.6308C24.9043 20.6252 24.8203 20.5961 24.7488 20.5469L19.7727 17.125V21C19.7727 21.5523 19.325 22 18.7727 22H4.5C3.94772 22 3.5 21.5523 3.5 21V8C3.5 7.44772 3.94772 7 4.5 7H18.7727C19.325 7 19.7727 7.44772 19.7727 8V11.875Z" fill="" fill-opacity=""/>
</g>
<defs>
<clipPath id="clip0_1_430">
<rect width="28" height="28" fill="white" transform="translate(0.5)"/>
</clipPath>
</defs>
</svg>
