<svg width="28" height="28" viewBox="0 0 28 28" fill="none" xmlns="http://www.w3.org/2000/svg">
<path fill-rule="evenodd" clip-rule="evenodd" d="M13.9697 2.99988C16.4241 2.99988 18.043 4.68705 18.043 7.13191V13.0796C18.043 13.6327 17.9601 14.147 17.8035 14.6117L9.90946 6.75808C10.0666 4.51673 11.6427 2.99988 13.9697 2.99988ZM9.89653 10.977V13.0796C9.89653 15.5248 11.5155 17.2114 13.9697 17.2114C14.6473 17.2114 15.2612 17.0828 15.795 16.8452L9.89653 10.977ZM17.1318 18.1752C16.2386 18.7321 15.166 19.0557 13.9995 19.0561C10.7858 19.0551 8.2849 16.6003 8.28322 13.5726C8.28322 13.005 8.02591 12.476 7.13998 12.476C6.41333 12.476 6.05821 12.9772 6.00407 13.5005L6 13.6168L6.00495 13.9176C6.17996 17.5781 9.12497 20.62 12.9083 21.1039V23.0293H10.8869C10.666 23.0293 10.4869 23.2084 10.4869 23.4293V24.5999C10.4869 24.8208 10.666 24.9999 10.8869 24.9999H17.1994C17.4203 24.9999 17.5994 24.8208 17.5994 24.5999V23.4293C17.5994 23.2084 17.4203 23.0293 17.1994 23.0293H15.091V21.1039C16.4229 20.9335 17.651 20.4461 18.6908 19.7262L17.1318 18.1752ZM20.7902 17.5831C21.4978 16.5064 21.9304 15.2532 21.9943 13.9176L22 13.6247L21.9915 13.4988C21.912 12.9772 21.4118 12.476 20.8592 12.476C20.2563 12.476 19.7159 13.005 19.7159 13.5726C19.7154 14.4276 19.5157 15.2369 19.1569 15.9581L20.7902 17.5831Z" fill="" fill-opacity=""/>
<rect width="1.87006" height="28.0362" transform="matrix(0.707107 -0.707107 0.708921 0.705288 4 4.32227)" fill="#F25A64"/>
</svg>
