<svg width="28" height="28" viewBox="0 0 28 28" fill="none" xmlns="http://www.w3.org/2000/svg">
<g clip-path="url(#clip0_1438_54951)">
<path fill-rule="evenodd" clip-rule="evenodd" d="M25 6C25 5.44772 24.5523 5 24 5H4C3.44772 5 3 5.44772 3 6V22C3 22.5523 3.44772 23 4 23H24C24.5523 23 25 22.5523 25 22V6ZM5.19995 11.75H10.0888V7.25H7.9936L7.9936 9.82143H5.19995V11.75ZM22.8 11.75H17.9111V7.25H20.0063V9.82143H22.8V11.75ZM10.0888 16.25H5.19995V18.1786H7.9936L7.9936 20.75H10.0888V16.25ZM22.8 16.25H17.9111V20.75H20.0063V18.1786H22.8V16.25Z" fill="white" fill-opacity="0.9"/>
</g>
<defs>
<clipPath id="clip0_1438_54951">
<rect width="28" height="28" fill="white"/>
</clipPath>
</defs>
</svg>
