<svg width="28" height="28" viewBox="0 0 28 28" fill="none" xmlns="http://www.w3.org/2000/svg">
<g clip-path="url(#clip0_1_418)">
<path fill-rule="evenodd" clip-rule="evenodd" d="M26.9817 17.5734C26.9103 18.0341 26.792 19.2953 23.9821 18.9367C21.1713 18.578 19.5188 18.5542 18.7704 17.1969C18.2083 16.2697 18.5407 15.5116 18.4841 15.1649C18.4285 14.8181 18.3258 14.4994 17.0709 14.298C15.817 14.0974 14 14.089 14 14.089C14 14.089 12.183 14.0974 10.9291 14.298C9.67423 14.4994 9.57154 14.8181 9.51498 15.1649C9.45929 15.5116 9.79171 16.2697 9.22956 17.1969C8.48031 18.5542 6.82867 18.578 4.01792 18.9367C1.20804 19.2953 1.08969 18.0341 1.01833 17.5734C0.946977 17.1137 1.05575 14.6906 1.85373 13.0282C3.79196 8.99059 24.208 8.99059 26.1463 13.0282C26.9442 14.6906 27.053 17.1137 26.9817 17.5734Z" fill="#F25A64"/>
</g>
<defs>
<clipPath id="clip0_1_418">
<rect width="28" height="28" fill="white"/>
</clipPath>
</defs>
</svg>
