<svg width="18" height="18" viewBox="0 0 18 18" fill="none" xmlns="http://www.w3.org/2000/svg">
<rect width="18" height="18" rx="2" fill="#4B83FF"/>
<path fill-rule="evenodd" clip-rule="evenodd" d="M9.0016 8.73116C10.2621 8.73116 11.2525 7.74164 11.2525 6.48228C11.2525 5.22292 10.2621 4.2334 9.0016 4.2334C7.74111 4.2334 6.75073 5.22292 6.75073 6.48228C6.75073 7.74164 7.74111 8.73116 9.0016 8.73116ZM13.5035 12.6067V11.985C13.5035 10.6052 11.4777 9.49801 9.00174 9.49801C6.52578 9.49801 4.5 10.6052 4.5 11.985V12.6067C4.5 13.0208 4.77009 13.2724 5.06272 13.2285H12.9408C13.2784 13.2221 13.5035 12.9704 13.5035 12.6067Z" fill="white"/>
<path d="M6.3002 2.7002L3.7002 2.7002C3.14791 2.7002 2.7002 3.14791 2.7002 3.7002V6.3002M11.7002 2.7002L14.3002 2.7002C14.8525 2.7002 15.3002 3.14791 15.3002 3.7002V6.3002M15.3002 11.7002V14.3002C15.3002 14.8525 14.8525 15.3002 14.3002 15.3002H11.7002M6.3002 15.3002H3.7002C3.14791 15.3002 2.7002 14.8525 2.7002 14.3002V11.7002" stroke="white"/>
</svg>
