<svg width="28" height="28" viewBox="0 0 28 28" fill="none" xmlns="http://www.w3.org/2000/svg">
<g clip-path="url(#clip0_1_377)">
<path fill-rule="evenodd" clip-rule="evenodd" d="M24 5C24.5523 5 25 5.44772 25 6V22C25 22.5523 24.5523 23 24 23H4C3.44772 23 3 22.5523 3 22V6C3 5.44772 3.44772 5 4 5H24ZM17.9111 7.25H22.8V11.75H20.7048V9.17857H17.9111V7.25ZM17.9111 20.75H22.8V16.25H20.7048V18.8214H17.9111V20.75ZM5.2 20.75H10.0889V18.8214H7.29524L7.29524 16.25H5.2V20.75ZM10.0889 7.25H5.2V11.75H7.29524L7.29524 9.17857H10.0889V7.25Z" fill="" fill-opacity=""/>
</g>
<defs>
<clipPath id="clip0_1_377">
<rect width="28" height="28" fill="white"/>
</clipPath>
</defs>
</svg>
