<svg width="28" height="28" viewBox="0 0 28 28" fill="none" xmlns="http://www.w3.org/2000/svg">
<path fill-rule="evenodd" clip-rule="evenodd" d="M21 7.98387V16.083C20.6748 16.0284 20.3407 16 20 16C16.6863 16 14 18.6863 14 22C14 23.0929 14.2922 24.1175 14.8027 25H10.8583C9.89067 25 8.94322 24.1577 8.32397 23.433C8.32397 23.433 3.87312 16.7763 3.30806 15.7656C2.31881 13.9996 3.9273 12.8126 5.09769 13.8131C5.19552 13.8968 6.54029 15.6835 7.20037 16.5633C7.3158 16.7172 7.56075 16.6352 7.56075 16.4429V6.62684C7.56075 6.44832 7.59549 6.27155 7.66298 6.10663C7.73047 5.9417 7.82939 5.79184 7.9541 5.66561C8.07881 5.53938 8.22686 5.43925 8.3898 5.37094C8.55274 5.30262 8.72738 5.26746 8.90375 5.26746C9.08011 5.26746 9.25475 5.30262 9.41769 5.37094C9.58063 5.43925 9.72868 5.53938 9.85339 5.66561C9.9781 5.79184 10.077 5.9417 10.1445 6.10663C10.212 6.27155 10.2467 6.44832 10.2467 6.62684V12.5235C10.2467 12.7719 10.4481 12.9732 10.6965 12.9732C10.9449 12.9732 11.1462 12.7719 11.1462 12.5235V4.35938C11.1462 3.99885 11.2877 3.65309 11.5396 3.39815C11.7914 3.14322 12.133 3 12.4892 3C12.8454 3 13.187 3.14322 13.4388 3.39815C13.6907 3.65309 13.8322 3.99885 13.8322 4.35938V12.525C13.8322 12.7726 14.0329 12.9732 14.2804 12.9732C14.5279 12.9732 14.7286 12.7726 14.7286 12.525V5.26511C14.7286 5.08659 14.7633 4.90982 14.8308 4.7449C14.8983 4.57997 14.9972 4.43011 15.1219 4.30388C15.2466 4.17765 15.3947 4.07752 15.5576 4.00921C15.7206 3.94089 15.8952 3.90573 16.0716 3.90573C16.2479 3.90573 16.4226 3.94089 16.5855 4.00921C16.7484 4.07752 16.8965 4.17765 17.0212 4.30388C17.1459 4.43011 17.2448 4.57997 17.3123 4.7449C17.3798 4.90982 17.4145 5.08659 17.4145 5.26511V12.525C17.4145 12.7726 17.6152 12.9732 17.8627 12.9732C18.1103 12.9732 18.3109 12.7726 18.3109 12.525V7.98387C18.3109 7.23327 18.9116 6.62684 19.6562 6.62684C20.4009 6.62684 21 7.23327 21 7.98387ZM24 22L21 22V18H19V22H16L20 26L24 22Z" fill="" fill-opacity=""/>
</svg>
