<svg width="29" height="28" viewBox="0 0 29 28" fill="none" xmlns="http://www.w3.org/2000/svg">
<path fill-rule="evenodd" clip-rule="evenodd" d="M22.5186 4.06605C22.4119 4.10621 22.3084 4.1653 22.2121 4.24502L21.2177 5.04435C18.2069 7.46434 14.5831 8.9484 10.7848 9.34165L23.9631 22.4524V5.08777C23.9631 4.29449 23.1786 3.81759 22.5186 4.06605ZM18.217 20.9697L6.63506 9.44709H4.58812C4.0619 9.44709 3.63525 9.87374 3.63525 10.4V17.6104C3.63525 18.1366 4.0619 18.5632 4.58812 18.5632H7.1291V22.6926C7.1291 23.2449 7.57682 23.6926 8.1291 23.6926H8.9877C9.53999 23.6926 9.9877 23.2449 9.9877 22.6926V18.6024C12.8762 18.7841 15.6825 19.5955 18.217 20.9697Z" fill="white" fill-opacity="0.9"/>
<rect width="1.87102" height="27.6133" transform="matrix(0.707107 -0.707107 0.708921 0.705288 4.05054 6.1095)" fill="#F25A64"/>
</svg>
