<svg width="16" height="16" viewBox="0 0 16 16" fill="none" xmlns="http://www.w3.org/2000/svg">
<path d="M11.9642 12.1762V5.05353C11.9642 4.49295 11.5093 4.03789 10.9491 4.03789H3.83021C3.83021 2.91672 3.95545 2 5.07601 2H11.9642C13.0913 2 14.001 2.91012 14.001 4.03789V10.9298C14.001 12.0509 13.0847 12.1762 11.9642 12.1762ZM6.94178 9.11391V7.58898C6.94178 7.4076 6.79407 7.25981 6.61279 7.25981C6.43151 7.25981 6.2838 7.4076 6.2838 7.58898V9.11391H4.7664C4.58512 9.12735 4.45084 9.27514 4.45755 9.45652C4.46426 9.62446 4.59855 9.7521 4.7664 9.76553H6.29051V11.2905C6.29051 11.4718 6.43822 11.6196 6.6195 11.6196C6.80079 11.6196 6.9485 11.4718 6.9485 11.2905V9.76553H8.47261C8.65389 9.7521 8.78817 9.60431 8.78146 9.42293C8.76803 9.2617 8.63375 9.12735 8.46589 9.11391H6.94178ZM2.7042 4.8526V4.846H10.4493C10.8382 4.846 11.1546 5.16256 11.1546 5.55168V13.3009C11.148 13.69 10.8382 14 10.4493 14H2.7042C2.3153 14 2.00549 13.6834 1.9989 13.3009V5.55168C1.9989 5.16916 2.3153 4.846 2.7042 4.8526Z" fill="url(#paint0_linear_1591_38808)"/>
<defs>
<linearGradient id="paint0_linear_1591_38808" x1="2.5428" y1="13.998" x2="13.5297" y2="3.76072" gradientUnits="userSpaceOnUse">
<stop stop-color="#3876FF"/>
<stop offset="1" stop-color="#69AEFF"/>
</linearGradient>
</defs>
</svg>
