<svg width="28" height="28" viewBox="0 0 28 28" fill="none" xmlns="http://www.w3.org/2000/svg">
<g clip-path="url(#clip0_1_383)">
<path fill-rule="evenodd" clip-rule="evenodd" d="M12.7019 13.2123C15.2324 13.2123 17.2838 11.1501 17.2838 8.60615C17.2838 6.06224 15.2324 4 12.7019 4C10.1714 4 8.12008 6.06224 8.12008 8.60615C8.12008 11.1501 10.1714 13.2123 12.7019 13.2123ZM3.5 22.5544C3.49981 22.8004 3.69957 22.9999 3.94562 22.9999H17.0697C16.4556 22.0224 16.1001 20.8641 16.1001 19.6224C16.1001 18.042 16.6759 16.5969 17.6281 15.4873C16.0391 14.8805 14.2212 14.5554 12.74 14.5554C10.2895 14.5554 6.91752 15.4451 5.18469 17.0288C3.56713 18.5071 3.50157 20.4771 3.5 22.5544ZM24.1 18.3231C24.3209 18.3231 24.5 18.5022 24.5 18.7231V19.612C24.5 19.8329 24.3209 20.012 24.1 20.012H21.98V22.1453C21.98 22.3663 21.8009 22.5453 21.58 22.5453H20.7C20.4791 22.5453 20.3 22.3663 20.3 22.1453V20.012H18.18C17.9591 20.012 17.78 19.8329 17.78 19.612V18.7231C17.78 18.5022 17.9591 18.3231 18.18 18.3231H20.3V16.1898C20.3 15.9688 20.4791 15.7898 20.7 15.7898H21.58C21.8009 15.7898 21.98 15.9688 21.98 16.1898V18.3231H24.1Z" fill="white" fill-opacity="0.9"/>
</g>
<defs>
<clipPath id="clip0_1_383">
<rect width="28" height="28" fill="white"/>
</clipPath>
</defs>
</svg>
