<svg width="28" height="28" viewBox="0 0 28 28" fill="none" xmlns="http://www.w3.org/2000/svg">
<g clip-path="url(#clip0_1_402)">
<path d="M17.3 11.2851V23H4.1C3.80826 23 3.52847 22.8917 3.32218 22.699C3.11589 22.5062 3 22.2448 3 21.9722V11.2851H17.3ZM25 11.2851V21.9722C25 22.2448 24.8841 22.5062 24.6778 22.699C24.4715 22.8917 24.1917 23 23.9 23H19.1559V11.2851H25ZM23.9 4.5C24.1917 4.5 24.4715 4.60828 24.6778 4.80103C24.8841 4.99377 25 5.25519 25 5.52778V9.63889H3V5.52778C3 5.25519 3.11589 4.99377 3.32218 4.80103C3.52847 4.60828 3.80826 4.5 4.1 4.5H23.9Z" fill="" fill-opacity=""/>
</g>
<defs>
<clipPath id="clip0_1_402">
<rect width="28" height="28" fill="white"/>
</clipPath>
</defs>
</svg>
