<?xml version="1.0" encoding="UTF-8"?>
<svg width="32px" height="23px" viewBox="0 0 32 23" version="1.1" xmlns="http://www.w3.org/2000/svg" xmlns:xlink="http://www.w3.org/1999/xlink">
    <title></title>
    <g id="Web-RTC" stroke="none" stroke-width="1"  fill-rule="evenodd">
        <g id="切图" transform="translate(-213.000000, -367.000000)">
            <g id="icon-布局--Normal备份-2" transform="translate(213.000000, 367.000000)">
                <rect id="蒙版" fill-opacity="0" fill="none" x="0" y="0" width="32" height="23"></rect>
                <path d="M24.2604255,2.5 C25.2746221,2.5 26.0960756,3.3055 26.0960756,4.3 L26.0960756,18.7 C26.0960756,19.6945 25.2746221,20.5 24.2604255,20.5 L7.73957454,20.5 C6.72537786,20.5 5.90392444,19.6945 5.90392444,18.7 L5.90392444,4.3 C5.90392444,3.3055 6.72537786,2.5 7.73957454,2.5 L24.2604255,2.5 Z M16,11.5 L8.65739959,11.5 C8.15076017,11.5 7.73957454,11.9032 7.73957454,12.4 L7.73957454,17.8 C7.73957454,18.2968 8.15076017,18.7 8.65739959,18.7 L16,18.7 C16.5066394,18.7 16.9178251,18.2968 16.9178251,17.8 L16.9178251,12.4 C16.9178251,11.9032 16.5066394,11.5 16,11.5 Z" id="形状结合" ></path>
                <path d="M4.85450506,13.3677846 L4.15300337,14.0286161 C3.95901011,14.210728 3.64549494,14.210728 3.45150169,14.0286161 L1.34699663,12.0461215 C1.34699663,12.0461215 1.34699663,12.0461215 1.34699663,12.0461215 L0.645494943,11.38529 C0.451501686,11.2031782 0.451501686,10.9074718 0.645494943,10.72536 L1.34699663,10.0645285 C1.34699663,10.0645285 1.34699663,10.0645285 1.34699663,10.0645285 L3.45150169,8.08203387 C3.64549494,7.89992204 3.95901011,7.89992204 4.15300337,8.08203387 L4.85450506,8.7428654 C5.04849831,8.92497723 5.04849831,9.22158511 4.85450506,9.40369694 L3.10121054,11.055325 L4.85450506,12.7069531 C5.04849831,12.8890649 5.04849831,13.1847712 4.85450506,13.3677846 Z" id="路径" ></path>
                <path d="M31.3545051,13.3677846 L30.6530034,14.0286161 C30.4590101,14.210728 30.1454949,14.210728 29.9515017,14.0286161 L27.8469966,12.0461215 C27.8469966,12.0461215 27.8469966,12.0461215 27.8469966,12.0461215 L27.1454949,11.38529 C26.9515017,11.2031782 26.9515017,10.9074718 27.1454949,10.72536 L27.8469966,10.0645285 C27.8469966,10.0645285 27.8469966,10.0645285 27.8469966,10.0645285 L29.9515017,8.08203387 C30.1454949,7.89992204 30.4590101,7.89992204 30.6530034,8.08203387 L31.3545051,8.7428654 C31.5484983,8.92497723 31.5484983,9.22158511 31.3545051,9.40369694 L29.6012105,11.055325 L31.3545051,12.7069531 C31.5484983,12.8890649 31.5484983,13.1847712 31.3545051,13.3677846 Z" id="路径备份" transform="translate(29.250000, 11.055325) scale(-1, 1) translate(-29.250000, -11.055325) "></path>
            </g>
        </g>
    </g>
</svg>