<svg width="28" height="28" viewBox="0 0 28 28" fill="none" xmlns="http://www.w3.org/2000/svg">
<g clip-path="url(#clip0_1_389)">
<path fill-rule="evenodd" clip-rule="evenodd" d="M14.559 9.57897C14.559 11.8983 12.6787 13.7786 10.3594 13.7786C8.04002 13.7786 6.15981 11.8983 6.15981 9.57897C6.15981 7.25961 8.04002 5.37939 10.3594 5.37939C12.6787 5.37939 14.559 7.25961 14.559 9.57897ZM2.4001 23.4999C2.17919 23.4999 1.99989 23.3208 2 23.0999C2.00102 21.1337 2.05454 19.2681 3.49161 17.8693C5.02582 16.376 8.01128 15.5371 10.181 15.5371C12.3507 15.5371 15.3361 16.376 16.8704 17.8693C18.2096 19.1729 18.3472 20.8819 18.3606 22.6999C18.3638 23.1417 18.0037 23.4999 17.5619 23.4999H2.4001ZM19.8076 15.7886C21.3136 15.7886 22.5346 14.5677 22.5346 13.0616C22.5346 11.5555 21.3136 10.3346 19.8076 10.3346C18.3015 10.3346 17.0806 11.5555 17.0806 13.0616C17.0806 14.5677 18.3015 15.7886 19.8076 15.7886ZM25.6001 23.4999H19.6666C19.7033 23.4044 19.723 23.3005 19.7221 23.1918C19.7049 21.1472 19.5531 19.0169 18.2205 17.5776C18.7741 17.4674 19.3183 17.4104 19.8077 17.4104C21.45 17.4104 23.7099 18.052 24.8712 19.194C25.9362 20.2413 25.9973 21.6309 26.0001 23.0999C26.0005 23.3208 25.8211 23.4999 25.6001 23.4999Z" fill="" fill-opacity=""/>
</g>
<defs>
<clipPath id="clip0_1_389">
<rect width="28" height="28" fill="white"/>
</clipPath>
</defs>
</svg>
