<svg width="28" height="28" viewBox="0 0 28 28" fill="none" xmlns="http://www.w3.org/2000/svg">
<path d="M18.043 7.13204C18.043 4.68718 16.4241 3 13.9697 3C11.5155 3 9.89653 4.68718 9.89653 7.13204V13.0798C9.89653 15.5249 11.5155 17.2115 13.9697 17.2115C16.424 17.2115 18.043 15.5249 18.043 13.0798V7.13204Z" fill="" fill-opacity=""/>
<path d="M21.9915 13.4989C21.912 12.9773 21.4118 12.4761 20.8592 12.4761C20.2563 12.4761 19.7159 13.0052 19.7159 13.5728C19.7142 16.6004 17.2133 19.0552 13.9995 19.0563C10.7858 19.0552 8.2849 16.6005 8.28322 13.5728C8.28322 13.0052 8.02591 12.4761 7.13998 12.4761C6.41333 12.4761 6.05821 12.9773 6.00407 13.5006L6 13.6169L6.00495 13.9177C6.17996 17.5782 9.12497 20.6201 12.9083 21.1041V22.6294C12.9083 22.8504 12.7292 23.0294 12.5083 23.0294H10.8869C10.666 23.0294 10.4869 23.2085 10.4869 23.4294V24.6C10.4869 24.8209 10.666 25 10.8869 25H17.1994C17.4203 25 17.5994 24.8209 17.5994 24.6V23.4294C17.5994 23.2085 17.4203 23.0294 17.1994 23.0294H15.091V21.1041C18.8743 20.6201 21.8193 17.5782 21.9943 13.9177L22 13.6248L21.9915 13.4989Z" fill="white" fill-opacity="0.9"/>
</svg>
