<svg width="28" height="28" viewBox="0 0 28 28" fill="none" xmlns="http://www.w3.org/2000/svg">
<g clip-path="url(#clip0_906_28786)">
<path fill-rule="evenodd" clip-rule="evenodd" d="M5.83112 7H4C3.44772 7 3 7.44772 3 8V21C3 21.5523 3.44772 22 4 22H18.2727C18.825 22 19.2727 21.5523 19.2727 21V20.3727L5.83112 7ZM22.4759 19.3277L24.2488 20.5469C24.3203 20.5961 24.4043 20.6252 24.4915 20.6308C24.5787 20.6364 24.6657 20.6184 24.7432 20.5788C24.8207 20.5391 24.8857 20.4793 24.9309 20.4059C24.9762 20.3325 25.0001 20.2483 25 20.1625V8.8375C25.0001 8.75168 24.9762 8.66748 24.9309 8.59408C24.8857 8.52068 24.8207 8.4609 24.7432 8.42124C24.6657 8.38159 24.5787 8.3636 24.4915 8.36922C24.4043 8.37484 24.3203 8.40386 24.2488 8.45312L19.2727 11.875V8C19.2727 7.44772 18.825 7 18.2727 7H10.0847L22.4759 19.3277Z" fill="" fill-opacity=""/>
<rect width="1.87006" height="28.0362" transform="matrix(0.707107 -0.707107 0.708921 0.705288 4 4.32227)" fill="#F25A64"/>
</g>
<defs>
<clipPath id="clip0_906_28786">
<rect width="28" height="28" fill="white"/>
</clipPath>
</defs>
</svg>
