<svg width="10" height="10" viewBox="0 0 10 10" fill="none" xmlns="http://www.w3.org/2000/svg">
<path d="M5 10C7.76142 10 10 7.76142 10 5C10 2.23858 7.76142 0 5 0C2.23858 0 0 2.23858 0 5C0 7.76142 2.23858 10 5 10Z" fill="#F25A64" fill-opacity="0.9"/>
<path d="M9.6 5C9.6 7.54051 7.54051 9.6 5 9.6C2.45949 9.6 0.4 7.54051 0.4 5C0.4 2.45949 2.45949 0.4 5 0.4C7.54051 0.4 9.6 2.45949 9.6 5Z" stroke="white" stroke-opacity="0.9" stroke-width="0.8"/>
<path d="M5.52166 6.01356L5.72897 2.77716C5.75476 2.37456 5.44929 2.02728 5.04669 2.00149C5.03115 2.0005 5.01557 2 5 2C4.59657 2 4.26953 2.32704 4.26953 2.73047C4.26953 2.74604 4.27003 2.76161 4.27103 2.77716L4.47833 6.01356C4.49595 6.28872 4.72427 6.50288 5 6.50288C5.27572 6.50288 5.50404 6.28872 5.52166 6.01356ZM4.99649 8C5.15084 8 5.27712 7.9496 5.38938 7.84879C5.4876 7.74799 5.54373 7.61118 5.54373 7.45277C5.54373 7.29437 5.4876 7.16476 5.38938 7.06395C5.28414 6.96315 5.15084 6.91275 4.99649 6.91275C4.84214 6.91275 4.71585 6.96315 4.61763 7.06395C4.50538 7.16476 4.45627 7.29437 4.45627 7.45277C4.45627 7.61118 4.50538 7.74079 4.61763 7.84159C4.71585 7.9424 4.84214 8 4.99649 8Z" fill="white"/>
</svg>
