<svg width="29" height="28" viewBox="0 0 29 28" fill="none" xmlns="http://www.w3.org/2000/svg">
<g clip-path="url(#clip0_1_408)">
<path fill-rule="evenodd" clip-rule="evenodd" d="M14.5 25C8.4247 25 3.5 20.0753 3.5 14C3.5 7.9247 8.4247 3 14.5 3C20.5753 3 25.5 7.9247 25.5 14C25.5 20.0753 20.5753 25 14.5 25ZM14.5 22C10.0816 22 6.50001 18.4184 6.50001 14C6.50001 9.58161 10.0816 6.00001 14.5 6.00001C18.9184 6.00001 22.5 9.58161 22.5 14C22.5 18.4184 18.9184 22 14.5 22ZM9.78571 14C9.78571 16.6037 11.8963 18.7143 14.5 18.7143C17.1037 18.7143 19.2143 16.6037 19.2143 14C19.2143 11.3963 17.1037 9.28574 14.5 9.28574C11.8963 9.28574 9.78571 11.3963 9.78571 14Z" fill="" fill-opacity=""/>
</g>
<defs>
<clipPath id="clip0_1_408">
<rect width="28" height="28" fill="white" transform="translate(0.5)"/>
</clipPath>
</defs>
</svg>
