<svg width="28" height="28" viewBox="0 0 28 28" fill="none" xmlns="http://www.w3.org/2000/svg">
<g clip-path="url(#clip0_1422_55264)">
<path fill-rule="evenodd" clip-rule="evenodd" d="M15.1 21.9V20.2535H24C24.5523 20.2535 25 19.8057 25 19.2535V6C25 5.44772 24.5523 5 24 5H4C3.44772 5 3 5.44772 3 6V19.2535C3 19.8057 3.44772 20.2535 4 20.2535H12.9V21.9H8.9C8.67909 21.9 8.5 22.079 8.5 22.3V23.6C8.5 23.8209 8.67909 24 8.9 24H19.1C19.3209 24 19.5 23.8209 19.5 23.6V22.3C19.5 22.079 19.3209 21.9 19.1 21.9H15.1ZM17.5 14.7267L15.2729 12.4995L17.5 10.2724L16.2276 9L14.0005 11.2272L11.7724 9L10.5 10.2724L12.7281 12.4995L10.5009 14.7276L11.7733 16L14.0005 13.7719L16.2276 15.9991L17.5 14.7267Z" fill="#F25A64" fill-opacity="0.9"/>
</g>
<defs>
<clipPath id="clip0_1422_55264">
<rect width="28" height="28" fill="white"/>
</clipPath>
</defs>
</svg>
