<svg width="28" height="28" viewBox="0 0 28 28" fill="none" xmlns="http://www.w3.org/2000/svg">
<g clip-path="url(#clip0_1_395)">
<path fill-rule="evenodd" clip-rule="evenodd" d="M15.1 21.9V20.2535H24C24.5523 20.2535 25 19.8057 25 19.2535V6C25 5.44772 24.5523 5 24 5H4C3.44772 5 3 5.44772 3 6V19.2535C3 19.8057 3.44772 20.2535 4 20.2535H12.9V21.9H8.9C8.67909 21.9 8.5 22.079 8.5 22.3V23.6C8.5 23.8209 8.67909 24 8.9 24H19.1C19.3209 24 19.5 23.8209 19.5 23.6V22.3C19.5 22.079 19.3209 21.9 19.1 21.9H15.1ZM18 13H15V16.4845H13V13H10L14 9L18 13Z" fill="" fill-opacity=""/>
</g>
<defs>
<clipPath id="clip0_1_395">
<rect width="28" height="28" fill="white"/>
</clipPath>
</defs>
</svg>
