<svg width="28" height="28" viewBox="0 0 28 28" fill="none" xmlns="http://www.w3.org/2000/svg">
<g clip-path="url(#clip0_1457_54691)">
<path d="M24 5C24.552 5 25 5.448 25 6V22C25 22.552 24.552 23 24 23H4C3.448 23 3 22.552 3 22V6C3 5.448 3.448 5 4 5H24ZM11 10C8.792 10 7 11.792 7 14C7 16.208 8.792 18 11 18C12.1 18 13.1 17.55 13.828 16.828L12.414 15.414C12.053 15.776 11.553 16 11 16C9.895 16 9 15.105 9 14C9 12.895 9.895 12 11 12C11.55 12 12.048 12.22 12.415 12.587L13.829 11.173C13.105 10.448 12.105 10 11 10ZM18 10C15.792 10 14 11.792 14 14C14 16.208 15.792 18 18 18C19.104 18 20.104 17.552 20.828 16.828L19.414 15.414C19.052 15.776 18.552 16 18 16C16.895 16 16 15.105 16 14C16 12.895 16.895 12 18 12C18.553 12 19.053 12.224 19.415 12.587L20.829 11.173C20.105 10.448 19.105 10 18 10Z" fill="" fill-opacity=""/>
</g>
<defs>
<clipPath id="clip0_1457_54691">
<rect width="28" height="28" fill="white"/>
</clipPath>
</defs>
</svg>
