<svg width="20" height="20" viewBox="0 0 20 20"  xmlns="http://www.w3.org/2000/svg">
<g clip-path="url(#clip0_2349_21482)">
<path d="M8.46579 2.65946C9.47727 2.44735 10.5217 2.44684 11.5334 2.65796C11.6008 3.10283 11.7676 3.52679 12.0214 3.89832C12.2752 4.26986 12.6094 4.57942 12.9993 4.804C13.3889 5.02934 13.8243 5.16397 14.2731 5.19785C14.7219 5.23173 15.1725 5.164 15.5915 4.9997C16.2801 5.77058 16.8016 6.67562 17.1234 7.65788C16.772 7.93875 16.4884 8.2952 16.2937 8.70075C16.099 9.10629 15.9981 9.5505 15.9987 10.0004C15.9987 10.9482 16.4381 11.7932 17.1249 12.3429C16.8012 13.3243 16.279 14.2286 15.5908 14.9995C15.1719 14.8354 14.7213 14.7677 14.2727 14.8016C13.824 14.8355 13.3888 14.97 12.9993 15.1953C12.6097 15.4198 12.2757 15.7291 12.0221 16.1004C11.7684 16.4716 11.6017 16.8953 11.5341 17.3398C10.5228 17.5524 9.47833 17.5534 8.46654 17.3428C8.39947 16.8975 8.23282 16.4731 7.97902 16.1012C7.72521 15.7292 7.39077 15.4193 7.00061 15.1945C6.61097 14.9693 6.17556 14.8348 5.72678 14.801C5.27799 14.7673 4.82737 14.8351 4.40842 14.9995C3.71977 14.2284 3.19818 13.3231 2.8765 12.3406C3.22772 12.0599 3.51121 11.7037 3.70592 11.2984C3.90064 10.8932 4.00158 10.4492 4.00126 9.99962C4.00163 9.54963 3.90056 9.10534 3.70557 8.69979C3.51058 8.29424 3.22669 7.93785 2.875 7.65713C3.19868 6.67568 3.72091 5.77136 4.40917 5.00045C4.82807 5.16464 5.27858 5.2323 5.72723 5.19842C6.17588 5.16454 6.61112 5.02998 7.00061 4.80474C7.39019 4.58024 7.72419 4.27088 7.97784 3.89962C8.23149 3.52836 8.39827 3.10474 8.46579 2.66021V2.65946ZM9.99996 12.2499C10.5966 12.2499 11.1687 12.0129 11.5906 11.591C12.0125 11.1692 12.2495 10.597 12.2495 10.0004C12.2495 9.40376 12.0125 8.83159 11.5906 8.40973C11.1687 7.98786 10.5966 7.75086 9.99996 7.75086C9.40335 7.75086 8.83118 7.98786 8.40932 8.40973C7.98745 8.83159 7.75045 9.40376 7.75045 10.0004C7.75045 10.597 7.98745 11.1692 8.40932 11.591C8.83118 12.0129 9.40335 12.2499 9.99996 12.2499Z"  />
</g>
<defs>
<clipPath id="clip0_2349_21482">
<rect width="20" height="20" fill="white"/>
</clipPath>
</defs>
</svg>
