<svg width="20" height="20" viewBox="0 0 20 20" fill="none" xmlns="http://www.w3.org/2000/svg">
<g clip-path="url(#clip0_2349_21483)">
<path d="M13.2727 2.45484L7.42629 8.30123L7.43255 11.6269L10.7512 11.6214L16.5952 5.7774V15.767C16.5952 15.9747 16.5127 16.1739 16.3659 16.3207C16.219 16.4676 16.0199 16.5501 15.8122 16.5501H3.28307C3.07539 16.5501 2.87621 16.4676 2.72936 16.3207C2.5825 16.1739 2.5 15.9747 2.5 15.767V3.23791C2.5 3.03023 2.5825 2.83105 2.72936 2.6842C2.87621 2.53734 3.07539 2.45484 3.28307 2.45484H13.2727ZM16.192 1.75008L17.3 2.85891L10.102 10.0569L8.99634 10.0592L8.99477 8.94962L16.192 1.75008Z "/>
</g>
<defs>
<clipPath id="clip0_2349_21483">
<rect width="20" height="20" fill="white"/>
</clipPath>
</defs>
</svg>
