<svg  title="快捷键" width="20" height="20" viewBox="0 0 20 20" fill="none" xmlns="http://www.w3.org/2000/svg">
<g clip-path="url(#clip0_2349_21481)">
<path d="M3.27 3.25H17.13C17.3342 3.25 17.5301 3.33112 17.6745 3.47553C17.8189 3.61993 17.9 3.81578 17.9 4.02V16.34C17.9 16.5442 17.8189 16.7401 17.6745 16.8845C17.5301 17.0289 17.3342 17.11 17.13 17.11H3.27C3.06578 17.11 2.86993 17.0289 2.72553 16.8845C2.58112 16.7401 2.5 16.5442 2.5 16.34V4.02C2.5 3.81578 2.58112 3.61993 2.72553 3.47553C2.86993 3.33112 3.06578 3.25 3.27 3.25ZM4.81 6.33V7.87H6.35V6.33H4.81ZM4.81 9.41V10.95H6.35V9.41H4.81ZM4.81 12.49V14.03H15.59V12.49H4.81ZM7.89 9.41V10.95H9.43V9.41H7.89ZM7.89 6.33V7.87H9.43V6.33H7.89ZM10.97 6.33V7.87H12.51V6.33H10.97ZM14.05 6.33V7.87H15.59V6.33H14.05ZM10.97 9.41V10.95H12.51V9.41H10.97ZM14.05 9.41V10.95H15.59V9.41H14.05Z"/>
</g>
<defs>
<clipPath id="clip0_2349_21481">
<rect width="20" height="20" fill="white"/>
</clipPath>
</defs>
</svg>
