<svg width="20" height="20" viewBox="0 0 20 20" fill="none" xmlns="http://www.w3.org/2000/svg">
<g clip-path="url(#clip0_2349_21484)">
<path d="M9.23804 14.1903H6.90726C6.68097 13.2203 5.65996 12.4272 5.2409 11.9045C4.52329 11.0079 4.07356 9.92683 3.94351 8.78582C3.81346 7.64481 4.00838 6.49028 4.50582 5.45521C5.00325 4.42014 5.78297 3.54664 6.75515 2.93534C7.72732 2.32405 8.85241 1.99982 10.0008 2C11.1492 2.00018 12.2742 2.32478 13.2462 2.93638C14.2181 3.54799 14.9976 4.42174 15.4947 5.45697C15.9918 6.4922 16.1863 7.64679 16.0559 8.78776C15.9255 9.92873 15.4754 11.0096 14.7575 11.906C14.3385 12.4279 13.319 13.2211 13.0927 14.1903H10.7619V10.3806H9.23804V14.1903ZM13.0477 15.7142V16.4761C13.0477 16.8803 12.8872 17.2679 12.6014 17.5537C12.3156 17.8394 11.928 18 11.5239 18H8.4761C8.07194 18 7.68434 17.8394 7.39855 17.5537C7.11277 17.2679 6.95222 16.8803 6.95222 16.4761V15.7142H13.0477Z "/>
</g>
<defs>
<clipPath id="clip0_2349_21484">
<rect width="20" height="20" fill="white"/>
</clipPath>
</defs>
</svg>
