<svg width="16" height="16" viewBox="0 0 16 16" fill="none" xmlns="http://www.w3.org/2000/svg">
<path fill-rule="evenodd" clip-rule="evenodd" d="M15 4.5C15 4.22386 14.7761 4 14.5 4H13.5C13.2239 4 13 4.22386 13 4.5V12.5C13 12.7761 13.2239 13 13.5 13H14.5C14.7761 13 15 12.7761 15 12.5V4.5ZM9 6.5C9 6.22386 9.22386 6 9.5 6H10.5C10.7761 6 11 6.22386 11 6.5V12.5C11 12.7761 10.7761 13 10.5 13H9.5C9.22386 13 9 12.7761 9 12.5V6.5ZM7 8.5C7 8.22386 6.77614 8 6.5 8H5.5C5.22386 8 5 8.22386 5 8.5V12.5C5 12.7761 5.22386 13 5.5 13H6.5C6.77614 13 7 12.7761 7 12.5V8.5ZM3 10.5C3 10.2239 2.77614 10 2.5 10H1.5C1.22386 10 1 10.2239 1 10.5V12.5C1 12.7761 1.22386 13 1.5 13H2.5C2.77614 13 3 12.7761 3 12.5V10.5Z" fill="#43AC67"/>
</svg>
