<svg width="16" height="16" viewBox="0 0 16 16" fill="none" xmlns="http://www.w3.org/2000/svg">
<path fill-rule="evenodd" clip-rule="evenodd" d="M9.5 6C9.22386 6 9 6.22386 9 6.5V12.5C9 12.7761 9.22386 13 9.5 13H10.5C10.7761 13 11 12.7761 11 12.5V6.5C11 6.22386 10.7761 6 10.5 6H9.5ZM5 8.5C5 8.22386 5.22386 8 5.5 8H6.5C6.77614 8 7 8.22386 7 8.5V12.5C7 12.7761 6.77614 13 6.5 13H5.5C5.22386 13 5 12.7761 5 12.5V8.5ZM1 10.5C1 10.2239 1.22386 10 1.5 10H2.5C2.77614 10 3 10.2239 3 10.5V12.5C3 12.7761 2.77614 13 2.5 13H1.5C1.22386 13 1 12.7761 1 12.5V10.5Z" fill="#FFAE52"/>
<path opacity="0.3" d="M13 4.5C13 4.22386 13.2239 4 13.5 4H14.5C14.7761 4 15 4.22386 15 4.5V12.5C15 12.7761 14.7761 13 14.5 13H13.5C13.2239 13 13 12.7761 13 12.5V4.5Z" fill="white"/>
</svg>
