<svg width="16" height="16" viewBox="0 0 16 16" fill="none" xmlns="http://www.w3.org/2000/svg">
<path fill-rule="evenodd" clip-rule="evenodd" d="M5.5 8C5.22386 8 5 8.22386 5 8.5V12.5C5 12.7761 5.22386 13 5.5 13H6.5C6.77614 13 7 12.7761 7 12.5V8.5C7 8.22386 6.77614 8 6.5 8H5.5ZM1.5 10C1.22386 10 1 10.2239 1 10.5V12.5C1 12.7761 1.22386 13 1.5 13H2.5C2.77614 13 3 12.7761 3 12.5V10.5C3 10.2239 2.77614 10 2.5 10H1.5Z" fill="#FFAE52"/>
<path opacity="0.3" fill-rule="evenodd" clip-rule="evenodd" d="M13.5 4C13.2239 4 13 4.22386 13 4.5V12.5C13 12.7761 13.2239 13 13.5 13H14.5C14.7761 13 15 12.7761 15 12.5V4.5C15 4.22386 14.7761 4 14.5 4H13.5ZM9.5 6C9.22386 6 9 6.22386 9 6.5V12.5C9 12.7761 9.22386 13 9.5 13H10.5C10.7761 13 11 12.7761 11 12.5V6.5C11 6.22386 10.7761 6 10.5 6H9.5Z" fill="white"/>
</svg>
