<svg width="20" height="20" viewBox="0 0 20 20" fill="none" xmlns="http://www.w3.org/2000/svg">
<g clip-path="url(#clip0_2330_20758)">
<path fill-rule="evenodd" clip-rule="evenodd" d="M4 10.5C4.55228 10.5 5 10.9477 5 11.5V16C5 16.5523 4.55228 17 4 17C3.44772 17 3 16.5523 3 16V11.5C3 10.9477 3.44772 10.5 4 10.5ZM8 8C8.55228 8 9 8.44772 9 9V16C9 16.5523 8.55228 17 8 17C7.44772 17 7 16.5523 7 16V9C7 8.44772 7.44772 8 8 8ZM12 6.5C12.5523 6.5 13 6.94772 13 7.5V16C13 16.5523 12.5523 17 12 17C11.4477 17 11 16.5523 11 16V7.5C11 6.94772 11.4477 6.5 12 6.5ZM16 4C16.5523 4 17 4.44772 17 5V16C17 16.5523 16.5523 17 16 17C15.4477 17 15 16.5523 15 16V5C15 4.44772 15.4477 4 16 4Z" fill="#43AC67"/>
</g>
<defs>
<clipPath id="clip0_2330_20758">
<rect width="20" height="20" fill="white"/>
</clipPath>
</defs>
</svg>
