<svg width="19" height="16" viewBox="0 0 19 16" fill="none" xmlns="http://www.w3.org/2000/svg">
<path d="M4.55085 12.7835H1.06827C0.478282 12.7835 0 12.3065 0 11.718V4.2598C0 3.67136 0.478282 3.19434 1.06827 3.19434H2.04391L12.1918 13.3155V15.1466C12.1918 15.777 11.5293 16.1893 10.9615 15.9122L4.55085 12.7835Z" fill="white"/>
<path d="M16.1352 12.4352L15.1426 11.4451C16.6325 10.9989 17.7181 9.61954 17.7181 7.98846C17.7181 6.21643 16.4368 4.74154 14.7477 4.43743L14.9754 3.17921C17.264 3.59125 19 5.58699 19 7.98846C19 9.96366 17.8256 11.6644 16.1352 12.4352Z" fill="white"/>
<path d="M12.1918 8.50209L6.18078 2.50694L10.9505 0.0933555C11.519 -0.194328 12.1918 0.217662 12.1918 0.853486V8.50209Z" fill="white"/>
<path d="M0.755517 0.312066C1.1727 -0.104022 1.8491 -0.104022 2.26628 0.312066L15.8632 13.8732C16.2804 14.2893 16.2804 14.9639 15.8632 15.38C15.446 15.796 14.7696 15.796 14.3524 15.38L0.755517 1.81885C0.33833 1.40277 0.33833 0.728154 0.755517 0.312066Z" fill="#ED4B47"/>
</svg>
